<svg width="26" height="26" viewBox="0 0 26 26" fill="none" xmlns="http://www.w3.org/2000/svg">
<g clip-path="url(#clip0_1_16)">
<path d="M4.875 13V4.0625C4.875 3.84701 4.9606 3.64035 5.11298 3.48798C5.26535 3.3356 5.47201 3.25 5.6875 3.25H15.4375L21.125 8.9375V13" stroke="black" stroke-width="1.21875" stroke-linecap="round" stroke-linejoin="round"/>
<path d="M15.4375 3.25V8.9375H21.125" stroke="black" stroke-width="1.21875" stroke-linecap="round" stroke-linejoin="round"/>
<path d="M4.49161 21.9834C4.33339 21.9834 4.2119 21.9393 4.12714 21.851C4.04238 21.7628 4 21.6414 4 21.4869V16.5131C4 16.3531 4.04521 16.2317 4.13562 16.149C4.22603 16.0607 4.35034 16.0166 4.50856 16.0166C4.64982 16.0166 4.76001 16.0441 4.83912 16.0993C4.92388 16.149 5.00016 16.2372 5.06797 16.3641L7.16153 20.1462H6.8903L8.98386 16.3641C9.05167 16.2372 9.12512 16.149 9.20423 16.0993C9.28334 16.0441 9.39353 16.0166 9.53479 16.0166C9.69301 16.0166 9.8145 16.0607 9.89926 16.149C9.98402 16.2317 10.0264 16.3531 10.0264 16.5131V21.4869C10.0264 21.6414 9.98402 21.7628 9.89926 21.851C9.82015 21.9393 9.69866 21.9834 9.53479 21.9834C9.37658 21.9834 9.25509 21.9393 9.17033 21.851C9.08557 21.7628 9.04319 21.6414 9.04319 21.4869V17.6552H9.22966L7.44971 20.8248C7.3932 20.9186 7.33387 20.9876 7.27172 21.0317C7.20956 21.0759 7.1248 21.0979 7.01744 21.0979C6.91008 21.0979 6.82249 21.0759 6.75468 21.0317C6.68688 20.9821 6.62754 20.9131 6.57669 20.8248L4.77979 17.6469H4.98321V21.4869C4.98321 21.6414 4.94083 21.7628 4.85607 21.851C4.77696 21.9393 4.65547 21.9834 4.49161 21.9834Z" fill="black"/>
<path d="M11.1466 21.9834C11.011 21.9834 10.9008 21.9531 10.8161 21.8924C10.7369 21.8317 10.6889 21.7517 10.672 21.6524C10.655 21.5476 10.6748 21.4317 10.7313 21.3048L12.9689 16.4634C13.0424 16.3034 13.13 16.1903 13.2317 16.1241C13.3391 16.0524 13.4605 16.0166 13.5962 16.0166C13.7261 16.0166 13.842 16.0524 13.9437 16.1241C14.051 16.1903 14.1415 16.3034 14.2149 16.4634L16.461 21.3048C16.5232 21.4317 16.5458 21.5476 16.5288 21.6524C16.5119 21.7572 16.4639 21.84 16.3848 21.9007C16.3056 21.9559 16.2011 21.9834 16.0711 21.9834C15.9129 21.9834 15.7886 21.9476 15.6982 21.8759C15.6134 21.7986 15.5372 21.6828 15.4693 21.5283L14.9184 20.2786L15.3761 20.5683H11.7993L12.257 20.2786L11.7145 21.5283C11.641 21.6883 11.5648 21.8041 11.4857 21.8759C11.4065 21.9476 11.2935 21.9834 11.1466 21.9834ZM13.5792 17.2331L12.3926 19.989L12.1722 19.7241H15.0032L14.7913 19.989L13.5962 17.2331H13.5792Z" fill="black"/>
<path d="M19.8895 22C19.2284 22 18.669 21.8786 18.2113 21.6359C17.7592 21.3931 17.4145 21.0483 17.1772 20.6014C16.9399 20.1545 16.8212 19.6248 16.8212 19.0124C16.8212 18.549 16.889 18.1324 17.0246 17.7628C17.1659 17.3931 17.3665 17.0786 17.6264 16.8193C17.892 16.5545 18.2141 16.3531 18.5927 16.2152C18.9713 16.0717 19.4007 16 19.881 16C20.1974 16 20.5139 16.0386 20.8303 16.1159C21.1524 16.1876 21.4547 16.3117 21.7372 16.4883C21.8333 16.549 21.8955 16.6234 21.9237 16.7117C21.9576 16.8 21.9633 16.891 21.9407 16.9848C21.9181 17.0731 21.8757 17.1503 21.8135 17.2166C21.7514 17.2828 21.6723 17.3241 21.5762 17.3407C21.4858 17.3572 21.3841 17.3352 21.2711 17.2745C21.0563 17.1531 20.8388 17.0648 20.6184 17.0097C20.398 16.9545 20.1522 16.9269 19.881 16.9269C19.4629 16.9269 19.1097 17.0097 18.8215 17.1752C18.5333 17.3352 18.3158 17.5697 18.1689 17.8786C18.0276 18.1876 17.957 18.5655 17.957 19.0124C17.957 19.691 18.1237 20.2069 18.4571 20.56C18.7904 20.9131 19.2849 21.0897 19.9403 21.0897C20.1664 21.0897 20.3952 21.0676 20.6269 21.0234C20.8586 20.9793 21.0846 20.9186 21.305 20.8414L21.0931 21.3131V19.5503H20.1607C20.0195 19.5503 19.9093 19.5145 19.8302 19.4428C19.7567 19.371 19.72 19.2745 19.72 19.1531C19.72 19.0262 19.7567 18.9297 19.8302 18.8634C19.9093 18.7972 20.0195 18.7641 20.1607 18.7641H21.5593C21.7005 18.7641 21.8079 18.8028 21.8813 18.88C21.9604 18.9517 22 19.0566 22 19.1945V21.2055C22 21.3269 21.9746 21.429 21.9237 21.5117C21.8785 21.5945 21.8022 21.6552 21.6949 21.6938C21.4462 21.7821 21.1609 21.8566 20.8388 21.9172C20.5167 21.9724 20.2003 22 19.8895 22Z" fill="black"/>
</g>
<defs>
<clipPath id="clip0_1_16">
<rect width="26" height="26" fill="white"/>
</clipPath>
</defs>
</svg>
