<svg xmlns="http://www.w3.org/2000/svg" xmlns:xlink="http://www.w3.org/1999/xlink" version="1.1" id="Layer_1" x="0px" y="0px" viewBox="0 0 24 24" style="enable-background:new 0 0 24 24;" xml:space="preserve">
<style type="text/css">
	.st0{fill:#fff;}
</style>
<g>
	<path class="st0" d="M10.3,10c0.1,0.1,0.2,0.3,0.2,0.4c0,0.2-0.1,0.3-0.2,0.4c-0.1,0.1-0.3,0.2-0.6,0.3H6.5c-0.3,0-0.5-0.1-0.7-0.3   c-0.1-0.1-0.2-0.3-0.2-0.5c0-0.2,0.1-0.3,0.2-0.5C6,9.7,6.2,9.7,6.5,9.7h0.6V2.5C6.9,2.7,6.7,2.7,6.5,2.7c-0.2,0-0.4-0.1-0.6-0.2   C5.8,2.4,5.7,2.2,5.7,2.1c0-0.1,0-0.2,0.1-0.3C5.9,1.6,6,1.5,6.1,1.4l1.4-0.8C7.7,0.6,7.9,0.6,8,0.6c0.4,0,0.7,0.2,0.8,0.6v8.5h0.9   C10,9.7,10.2,9.8,10.3,10z"/>
</g>
<g>
	<path class="st0" d="M17.1,15.3c-0.1-0.2-0.2-0.4-0.4-0.5c-0.2-0.1-0.3-0.2-0.5-0.2c-0.6,0-1.1,0.1-1.5,0.4   c-0.5,0.3-0.9,0.6-1.2,0.9c-0.2,0.1-0.4,0.2-0.6,0.2c-0.2,0-0.4-0.1-0.5-0.2c-0.1-0.1-0.2-0.3-0.2-0.5c0-0.2,0.1-0.4,0.2-0.5   c0.2-0.2,0.5-0.5,0.8-0.7c0.3-0.2,0.6-0.4,0.9-0.6c0.3-0.2,0.6-0.3,1-0.4c0.3-0.1,0.7-0.2,1-0.2c0.4,0,0.8,0.1,1.1,0.2   c0.4,0.2,0.7,0.4,0.9,0.6c0.3,0.3,0.5,0.6,0.6,1c0.2,0.4,0.2,0.8,0.2,1.3c0,0.1,0,0.3-0.1,0.5c-0.1,0.5-0.3,1-0.6,1.3   c-0.3,0.3-0.6,0.6-0.9,0.8c-0.3,0.2-0.7,0.4-1.1,0.6c-0.4,0.2-0.7,0.4-1,0.6c-0.3,0.2-0.6,0.5-0.8,0.8c-0.2,0.3-0.4,0.7-0.5,1.2   h3.6c0.1,0,0.3,0,0.3-0.1c0.1,0,0.1-0.1,0.2-0.1c0,0,0.1-0.1,0.2-0.2c0.1-0.1,0.2-0.2,0.2-0.2c0.1,0,0.1-0.1,0.2-0.1s0.2,0,0.2,0   c0.2,0,0.4,0.1,0.5,0.2c0.1,0.1,0.2,0.3,0.2,0.5c0,0.1,0,0.2,0,0.3c0,0.1-0.1,0.1-0.1,0.1c-0.2,0.3-0.5,0.6-0.8,0.7   c-0.3,0.2-0.7,0.3-1.1,0.3H13c-0.5,0-0.8-0.3-0.8-0.8c0-0.4,0.1-0.7,0.2-1.1c0.1-0.4,0.2-0.7,0.3-1c0.1-0.3,0.3-0.6,0.5-0.9   c0.2-0.3,0.5-0.6,0.8-0.8c0.3-0.2,0.6-0.4,1-0.6c0.4-0.2,0.7-0.4,1.1-0.6c0.3-0.2,0.6-0.5,0.9-0.8c0.2-0.3,0.4-0.7,0.4-1.1   c0-0.1,0-0.2-0.1-0.4C17.2,15.4,17.1,15.3,17.1,15.3z"/>
</g>
<g>
	<path class="st0" d="M16,7.8c0.2,0,0.3,0.1,0.4,0.1c0.1,0.1,0.1,0.2,0.2,0.3c0,0.1,0,0.3-0.1,0.4L8.6,16c-0.2,0.1-0.3,0.2-0.5,0.2   c-0.2,0-0.3-0.1-0.4-0.2c-0.1-0.1-0.2-0.2-0.2-0.4c0-0.2,0.1-0.3,0.2-0.5l7.9-7.3C15.7,7.8,15.9,7.8,16,7.8z"/>
</g>
</svg>
